<svg xmlns="http://www.w3.org/2000/svg" version="1.1" xmlns:xlink="http://www.w3.org/1999/xlink" xmlns:svgjs="http://svgjs.dev/svgjs" width="128" height="128" viewBox="0 0 128 128"><g transform="matrix(0.544973544973545,0,0,0.544973544973545,29.078790315549732,12.176682019892034)"><svg viewBox="0 0 65 96" data-background-color="#ffffff" preserveAspectRatio="xMidYMid meet" height="189" width="128" xmlns="http://www.w3.org/2000/svg" xmlns:xlink="http://www.w3.org/1999/xlink"><g id="tight-bounds" transform="matrix(1,0,0,1,0.039977318982963084,0.30134491349869563)"><svg viewBox="0 0 64.92004536203407 95.481" height="95.481" width="64.92004536203407"><g><svg viewBox="0 0 64.92004536203407 95.481" height="95.481" width="64.92004536203407"><g><svg viewBox="0 0 64.92004536203407 95.481" height="95.481" width="64.92004536203407"><g id="textblocktransform"><svg viewBox="0 0 64.92004536203407 95.481" height="95.481" width="64.92004536203407" id="textblock"><g><svg viewBox="0 0 64.92004536203407 95.481" height="95.481" width="64.92004536203407"><g><svg viewBox="0 0 64.92004536203407 95.481" height="95.481" width="64.92004536203407"><g><svg xmlns="http://www.w3.org/2000/svg" xmlns:xlink="http://www.w3.org/1999/xlink" version="1.1" x="0" y="0" viewBox="0 3.1027367907725854 65.883 96.89726320922742" enable-background="new 0 0 65.883 100" xml:space="preserve" width="64.92004536203407" height="95.481" class="icon-icon-0" data-fill-palette-color="accent" id="icon-0"><g fill="#0023ff" data-fill-palette-color="accent"><path d="M32.941 61.707c8.481 0 15.381-6.899 15.381-15.38 0-2.804-0.759-5.434-2.075-7.7-0.66-0.212-1.323-0.415-1.997-0.595L32.941 54.178 21.633 38.031c-0.673 0.181-1.337 0.383-1.997 0.595-1.317 2.267-2.076 4.896-2.076 7.701C17.561 54.807 24.461 61.707 32.941 61.707z" fill="#0023ff" data-fill-palette-color="accent"></path><path d="M48.243 39.324c0.981 2.134 1.532 4.504 1.532 7.002 0 9.025-7.138 16.411-16.065 16.815 0.108 1.008 0.491 2.912 1.86 4.307 1.152 1.174 2.795 1.77 4.882 1.77 3.418 0 5.578 1.671 5.777 4.47 0.167 2.356-1.285 5.19-3.548 6.034 0.03 0.181 0.05 0.365 0.05 0.556 0 1.864-1.511 3.376-3.376 3.376-1.864 0-3.376-1.512-3.376-3.376s1.512-3.376 3.376-3.376c1.156 0 2.176 0.582 2.784 1.469 1.521-0.559 2.777-2.649 2.64-4.579-0.143-2.012-1.68-3.12-4.327-3.12-2.497 0-4.492-0.745-5.93-2.215-1.743-1.783-2.17-4.14-2.274-5.312-8.961-0.366-16.141-7.767-16.141-16.817 0-2.498 0.551-4.869 1.532-7.002C10.761 41.912 4.71 46.187 0 51.655v42.148c1.969 2.285 4.172 4.362 6.571 6.197h52.741c2.399-1.835 4.603-3.912 6.571-6.197V51.655C61.174 46.187 55.121 41.912 48.243 39.324z" fill="#0023ff" data-fill-palette-color="accent"></path></g><rect x="8.005" y="66.896" fill="#0023ff" width="12.539" height="1.351" data-fill-palette-color="accent"></rect><circle cx="32.942" cy="19.015" r="19" fill="#0023ff" data-fill-palette-color="accent"></circle></svg></g></svg></g></svg></g></svg></g></svg></g></svg></g><defs></defs></svg><rect width="64.92004536203407" height="95.481" fill="none" stroke="none" visibility="hidden"></rect></g></svg></g></svg>